<?xml version="1.0"?>
<svg xmlns="http://www.w3.org/2000/svg" height="512px" viewBox="0 0 512 512" width="512px"><path d="m396.367188 23.675781-261.695313 261.699219-10.5625-10.5625c-15.625-15.625-41.058594-15.628906-56.6875 0-7.570313 7.570312-11.742187 17.636719-11.742187 28.347656 0 10.707032 4.171874 20.773438 11.742187 28.34375l25.234375 25.234375-92.65625 92.65625 62.605469 62.605469 92.65625-92.65625 25.234375 25.234375c7.570312 7.570313 17.640625 11.742187 28.347656 11.742187s20.773438-4.171874 28.34375-11.742187 11.742188-17.636719 11.742188-28.34375-4.171876-20.773437-11.742188-28.34375l-10.558594-10.5625 261.695313-261.695313 23.675781-115.632812zm-353.867188 425.71875 15.015625-15.015625 20.105469 20.105469-15.015625 15.015625zm56.371094-16.160156-20.105469-20.105469 35.140625-35.140625 20.105469 20.105469zm117.0625-9.90625c-1.894532 1.894531-4.410156 2.9375-7.09375 2.9375-2.679688 0-5.199219-1.042969-7.09375-2.9375l-113.074219-113.074219c-1.894531-1.894531-2.9375-4.414062-2.9375-7.09375 0-2.679687 1.042969-5.199218 2.9375-7.097656 1.957031-1.953125 4.527344-2.933594 7.09375-2.933594 2.570313 0 5.140625.980469 7.097656 2.933594l113.074219 113.078125c1.894531 1.894531 2.9375 4.414063 2.9375 7.09375s-1.042969 5.199219-2.941406 7.09375zm244.757812-322.566406-255.316406 255.316406-14.101562-14.101563 140.429687-140.429687-21.25-21.25-140.429687 140.429687-14.101563-14.101562 255.316406-255.316406 62.1875-12.734375zm0 0" fill="#3a3c4a"/></svg>
