<?xml version="1.0" encoding="iso-8859-1"?>
<!-- Generator: Adobe Illustrator 19.0.0, SVG Export Plug-In . SVG Version: 6.00 Build 0)  -->
<svg xmlns="http://www.w3.org/2000/svg" xmlns:xlink="http://www.w3.org/1999/xlink" version="1.1" id="Capa_1" x="0px" y="0px" viewBox="0 0 512 512" style="enable-background:new 0 0 512 512;" xml:space="preserve" width="512px" height="512px">
<g>
	<g>
		<path d="M256,0L31.004,64.713v112.819c0,144.799,85.998,274.897,219.088,331.936L256,512l5.909-2.532    C395,452.429,480.996,322.331,480.996,177.532V64.713L256,0z M450.997,177.532c0,130.626-76.322,248.49-194.997,302.081    C137.325,426.022,61.003,308.158,61.003,177.532V87.301L256,31.216l194.997,56.085V177.532z" fill="#FFF"/>
	</g>
</g>
<g>
	<g>
		<path d="M256,62.809L91.003,109.955v67.578c0,110.835,60.488,212.41,157.861,265.084l7.137,3.861l7.137-3.861    c97.372-52.674,157.861-154.249,157.861-265.084v-67.578L256,62.809z M241,402.859c-74.61-50.051-119.998-134.21-119.998-225.326    v-44.949L241,98.295V402.859z M390.998,177.533c0,91.116-45.388,175.273-119.998,225.326V98.295l119.998,34.288V177.533z" fill="#FFF"/>
	</g>
</g>
<g>
</g>
<g>
</g>
<g>
</g>
<g>
</g>
<g>
</g>
<g>
</g>
<g>
</g>
<g>
</g>
<g>
</g>
<g>
</g>
<g>
</g>
<g>
</g>
<g>
</g>
<g>
</g>
<g>
</g>
</svg>
