<?xml version="1.0" encoding="iso-8859-1"?>
<!-- Generator: Adobe Illustrator 19.0.0, SVG Export Plug-In . SVG Version: 6.00 Build 0)  -->
<svg xmlns="http://www.w3.org/2000/svg" xmlns:xlink="http://www.w3.org/1999/xlink" version="1.1" id="Capa_1" x="0px" y="0px" viewBox="0 0 512 512" style="enable-background:new 0 0 512 512;" xml:space="preserve" width="512px" height="512px">
<g>
	<g>
		<path d="M473.511,96.011L481,91.679V65.787L415.213,0H389.32l-4.332,7.489C376.957,21.375,362.017,30,346,30    c-16.017,0-30.957-8.625-38.988-22.511L302.68,0h-93.36l-4.332,7.489C196.957,21.375,182.017,30,166,30    c-16.017,0-30.957-8.625-38.988-22.511L122.68,0H96.787L31,65.787v25.892l7.489,4.332C52.374,104.043,61,118.983,61,135    c0,15.98-8.596,30.903-22.434,38.944l-7.244,4.21l-0.214,8.376C28.085,304.789,88.88,419.624,193.546,481.188L245.931,512h20.162    l52.375-30.811C423.3,419.521,483.914,304.58,480.892,186.529l-0.215-8.375l-7.243-4.209C459.596,165.902,451,150.98,451,135    C451,118.983,459.626,104.043,473.511,96.011z M451.002,195.001c0.053,107.167-56.051,206.392-147.745,260.331L257.923,482h-3.824    l-45.344-26.67C117.057,401.393,60.948,302.17,60.998,195.001C79.693,180.938,91,158.668,91,135    c0-22.902-10.579-44.481-28.191-58.596l44.596-44.596C121.519,49.421,143.097,60,166,60c23.677,0,45.938-11.305,60-30h60    c14.063,18.695,36.323,30,60,30c22.903,0,44.481-10.579,58.596-28.191l44.596,44.596C431.579,90.519,421,112.098,421,135    C421,158.667,432.308,180.938,451.002,195.001z" fill="#3a3c4a"/>
	</g>
</g>
<g>
	<g>
		<path d="M416.675,203.724C400.119,184.559,391,160.152,391,135c0-10.467,1.578-20.872,4.69-30.925l8.414-27.179l-27.18,8.414    C366.872,88.422,356.468,90,346,90c-25.491,0-50.145-9.329-69.419-26.268L272.333,60h-32.666l-4.248,3.732    C216.145,80.671,191.491,90,166,90c-10.468,0-20.872-1.578-30.925-4.69l-27.18-8.414l8.414,27.179    C119.422,114.128,121,124.533,121,135c0,25.137-9.12,49.545-25.681,68.729l-4.058,4.7l0.452,6.193    c6.304,86.39,54.353,169.035,132.263,214.858l32.025,18.847l32.035-18.861c77.999-45.869,125.954-128.57,132.249-214.844    l0.452-6.197L416.675,203.724z M272.823,403.61l-16.825,9.905l-16.81-9.892l-0.003-0.001    c-65.098-38.288-109.543-108.88-117.047-185.286C140.796,194.529,151,165.185,151,135c0-5.339-0.318-10.664-0.952-15.952    C155.336,119.682,160.661,120,166,120c30.856,0,60.743-10.614,84.789-30h10.422c24.046,19.386,53.933,30,84.789,30    c5.339,0,10.664-0.318,15.952-0.952C361.318,124.336,361,129.661,361,135c0,30.201,10.204,59.546,28.861,83.338    C382.357,294.746,337.918,365.33,272.823,403.61z" fill="#3a3c4a"/>
	</g>
</g>
<g>
	<g>
		<path d="M362.969,208.825l-73.914-10.74L256,131.107l-33.056,66.978l-73.914,10.74l53.484,52.135l-12.626,73.615L256,299.819    l66.111,34.756l-12.626-73.615L362.969,208.825z M282.268,279.735L256,265.926l-26.268,13.809l5.017-29.249l-21.25-20.714    l29.367-4.268L256,198.893l13.134,26.611l29.367,4.268l-21.25,20.714L282.268,279.735z" fill="#3a3c4a"/>
	</g>
</g>
<g>
</g>
<g>
</g>
<g>
</g>
<g>
</g>
<g>
</g>
<g>
</g>
<g>
</g>
<g>
</g>
<g>
</g>
<g>
</g>
<g>
</g>
<g>
</g>
<g>
</g>
<g>
</g>
<g>
</g>
</svg>
