<?xml version="1.0" encoding="iso-8859-1"?>
<!-- Generator: Adobe Illustrator 19.0.0, SVG Export Plug-In . SVG Version: 6.00 Build 0)  -->
<svg xmlns="http://www.w3.org/2000/svg" xmlns:xlink="http://www.w3.org/1999/xlink" version="1.1" id="Capa_1" x="0px" y="0px" viewBox="0 0 512 512" style="enable-background:new 0 0 512 512;" xml:space="preserve" width="512px" height="512px">
<g>
	<g>
		<path d="M451.369,68.577c-0.13-0.64-0.32-1.269-0.57-1.869c-0.25-0.6-0.56-1.18-0.92-1.73c-0.36-0.541-0.78-1.06-1.24-1.52    c-0.46-0.46-0.97-0.881-1.52-1.24c-0.54-0.36-1.12-0.67-1.73-0.92c-0.599-0.25-1.229-0.44-1.87-0.57    c-3.25-0.651-6.701,0.41-9.02,2.73c-0.46,0.46-0.88,0.98-1.25,1.52c-0.36,0.549-0.66,1.129-0.91,1.73    c-0.25,0.599-0.45,1.229-0.57,1.869c-0.13,0.65-0.2,1.301-0.2,1.95c0,0.66,0.07,1.311,0.2,1.96c0.12,0.641,0.32,1.27,0.57,1.87    c0.25,0.6,0.55,1.18,0.91,1.73c0.37,0.541,0.79,1.05,1.25,1.52c0.46,0.46,0.97,0.88,1.52,1.24c0.54,0.36,1.12,0.67,1.721,0.92    c0.609,0.25,1.239,0.44,1.869,0.57c0.65,0.129,1.311,0.189,1.96,0.189c0.651,0,1.311-0.059,1.95-0.189    c0.641-0.13,1.27-0.32,1.87-0.57c0.61-0.25,1.19-0.56,1.73-0.92c0.55-0.36,1.06-0.78,1.52-1.24c0.46-0.47,0.88-0.98,1.24-1.52    c0.36-0.549,0.67-1.129,0.92-1.73c0.25-0.599,0.44-1.229,0.57-1.87c0.13-0.649,0.199-1.3,0.199-1.96    C451.568,69.878,451.499,69.227,451.369,68.577z" fill="#FFFFFF"/>
	</g>
</g>
<g>
	<g>
		<path d="M511.999,9.969c-0.016-1.017-0.189-2.011-0.499-2.953c-0.001-0.002-0.001-0.004-0.002-0.006    c-0.022-0.066-0.044-0.132-0.068-0.198c-0.009-0.025-0.017-0.049-0.026-0.074c-0.014-0.039-0.029-0.078-0.044-0.118    c-0.019-0.05-0.038-0.1-0.057-0.15c-0.003-0.008-0.007-0.016-0.01-0.025c-0.51-1.29-1.27-2.426-2.208-3.367    c-0.004-0.004-0.008-0.008-0.012-0.012c-0.012-0.012-0.024-0.023-0.036-0.035c-0.988-0.981-2.191-1.765-3.559-2.27    c-0.015-0.006-0.03-0.011-0.045-0.017c-0.047-0.017-0.095-0.034-0.142-0.051c-0.043-0.015-0.087-0.03-0.131-0.045    c-0.022-0.007-0.045-0.015-0.067-0.022c-0.07-0.023-0.141-0.045-0.211-0.066h-0.001c-0.719-0.217-1.467-0.355-2.23-0.404    c-0.009-0.001-0.017-0.001-0.025-0.002c-0.035-0.002-0.071-0.004-0.107-0.006c-1.048-0.056-2.08,0.055-3.064,0.315l-129.92,31.885    c-2.049,0.503-3.887,1.642-5.25,3.252L162.696,273.814l-19.667-19.666c-3.905-3.903-10.235-3.904-14.141-0.002l-29.348,29.333    c-1.876,1.876-2.931,4.42-2.931,7.073c0,2.653,1.055,5.197,2.931,7.073l19.537,19.527l-68.881,68.833    c-11.966-9.831-29.732-9.162-40.91,2.009l-0.348,0.348C3.174,394.103,0,401.764,0,409.915c0,8.149,3.174,15.811,8.938,21.572    l71.505,71.467c5.946,5.942,13.755,8.913,21.564,8.913c7.805-0.001,15.61-2.97,21.55-8.905l0.357-0.356    c5.765-5.762,8.938-13.423,8.938-21.573c0-7.139-2.435-13.903-6.913-19.343l68.882-68.833l19.541,19.53    c1.952,1.951,4.511,2.927,7.069,2.927c2.558,0,5.117-0.976,7.069-2.927l29.317-29.302c1.876-1.875,2.931-4.419,2.931-7.072    c0-2.652-1.054-5.196-2.929-7.072l-19.669-19.669l238.362-201.489c1.612-1.362,2.751-3.2,3.255-5.251L511.663,12.71    c0.227-0.848,0.343-1.733,0.337-2.633c0-0.021,0-0.043,0-0.064C512,9.998,511.999,9.984,511.999,9.969z M109.784,488.45    l-0.357,0.356c-4.093,4.092-10.754,4.092-14.845,0L23.077,417.34c-1.984-1.983-3.077-4.62-3.077-7.425    c0-2.807,1.093-5.443,3.079-7.429l0.348-0.348c2.046-2.046,4.734-3.068,7.423-3.068c2.688,0,5.376,1.023,7.422,3.068    l71.505,71.467c1.984,1.983,3.077,4.621,3.077,7.427C112.854,483.837,111.761,486.474,109.784,488.45z M111.897,447.447    l-47.452-47.426l29.7-29.679l-2.478,39.3c-0.18,2.865,0.88,5.669,2.91,7.7c1.881,1.881,4.427,2.929,7.07,2.929    c0.21,0,0.42-0.007,0.63-0.02l39.314-2.477L111.897,447.447z M112.343,399.577l1.211-19.204l19.225-1.211l-1.211,19.204    L112.343,399.577z M150.975,408.397l2.478-39.3c0.181-2.865-0.879-5.67-2.909-7.7c-2.03-2.03-4.847-3.08-7.7-2.909l-39.315,2.477    l29.694-29.673l47.452,47.426L150.975,408.397z M221.432,391.174L120.755,290.553l15.2-15.192l100.649,100.648L221.432,391.174z     M461.12,134.605l-237.16,200.472l-16.465-16.465l217.874-217.749c3.906-3.904,3.908-10.236,0.004-14.143    c-3.904-3.907-10.236-3.909-14.143-0.004L193.352,304.47l-16.464-16.465L377.455,50.999l110.893-27.215L461.12,134.605z" fill="#FFFFFF"/>
	</g>
</g>
<g>
</g>
<g>
</g>
<g>
</g>
<g>
</g>
<g>
</g>
<g>
</g>
<g>
</g>
<g>
</g>
<g>
</g>
<g>
</g>
<g>
</g>
<g>
</g>
<g>
</g>
<g>
</g>
<g>
</g>
</svg>
