<?xml version="1.0" encoding="utf-8"?>
<!-- Generator: Adobe Illustrator 22.1.0, SVG Export Plug-In . SVG Version: 6.00 Build 0)  -->
<svg version="1.1" id="Capa_1" xmlns="http://www.w3.org/2000/svg" xmlns:xlink="http://www.w3.org/1999/xlink" x="0px" y="0px"
	 viewBox="0 0 512 512" style="enable-background:new 0 0 512 512;" xml:space="preserve">
<style type="text/css">
	.st0{fill:#EE8130;}
	.st1{fill:#FFFFFF;}
	.st2{fill:#6390F0;}
	.st3{fill:#A6B91A;}
</style>
<g>
	<path class="st0" d="M73.1,0C32.8,0,0,32.8,0,73.1s32.8,73.1,73.1,73.1s73.1-32.8,73.1-73.1S113.5,0,73.1,0z M73.1,122.3
		c-27.1,0-49.1-22-49.1-49.1S46.1,24,73.1,24s49.1,22,49.1,49.1S100.2,122.3,73.1,122.3z"/>
	<path class="st1" d="M256,0c-40.3,0-73.1,32.8-73.1,73.1s32.8,73.1,73.1,73.1s73.1-32.8,73.1-73.1S296.3,0,256,0z M256,122.3
		c-27.1,0-49.1-22-49.1-49.1S228.9,24,256,24s49.1,22,49.1,49.1S283.1,122.3,256,122.3z"/>
	<path class="st1" d="M438.9,0c-40.3,0-73.1,32.8-73.1,73.1s32.8,73.1,73.1,73.1S512,113.5,512,73.1S479.2,0,438.9,0z M438.9,122.3
		c-27.1,0-49.1-22-49.1-49.1s22-49.1,49.1-49.1c27.1,0,49.1,22,49.1,49.1S465.9,122.3,438.9,122.3z"/>
	<path class="st1" d="M73.1,182.9C32.8,182.9,0,215.7,0,256s32.8,73.1,73.1,73.1s73.1-32.8,73.1-73.1S113.5,182.9,73.1,182.9z
		 M73.1,305.1c-27.1,0-49.1-22-49.1-49.1s22-49.1,49.1-49.1s49.1,22,49.1,49.1S100.2,305.1,73.1,305.1z"/>
	<path class="st2" d="M438.9,365.7c-40.3,0-73.1,32.8-73.1,73.1s32.8,73.1,73.1,73.1s73.1-32.8,73.1-73.1S479.2,365.7,438.9,365.7z
		 M438.9,488c-27.1,0-49.1-22-49.1-49.1c0-27.1,22-49.1,49.1-49.1c27.1,0,49.1,22,49.1,49.1C488,465.9,465.9,488,438.9,488z"/>
	<path class="st1" d="M256,365.7c-40.3,0-73.1,32.8-73.1,73.1S215.7,512,256,512s73.1-32.8,73.1-73.1S296.3,365.7,256,365.7z
		 M256,488c-27.1,0-49.1-22-49.1-49.1c0-27.1,22-49.1,49.1-49.1c27.1,0,49.1,22,49.1,49.1C305.1,465.9,283.1,488,256,488z"/>
	<path class="st1" d="M438.9,182.9c-40.3,0-73.1,32.8-73.1,73.1s32.8,73.1,73.1,73.1S512,296.3,512,256S479.2,182.9,438.9,182.9z
		 M438.9,305.1c-27.1,0-49.1-22-49.1-49.1s22-49.1,49.1-49.1c27.1,0,49.1,22,49.1,49.1S465.9,305.1,438.9,305.1z"/>
	<path class="st1" d="M73.1,365.7C32.8,365.7,0,398.5,0,438.9S32.8,512,73.1,512s73.1-32.8,73.1-73.1S113.5,365.7,73.1,365.7z
		 M73.1,488c-27.1,0-49.1-22-49.1-49.1c0-27.1,22-49.1,49.1-49.1s49.1,22,49.1,49.1C122.2,465.9,100.2,488,73.1,488z"/>
	<path class="st3" d="M256,182.9c-40.3,0-73.1,32.8-73.1,73.1s32.8,73.1,73.1,73.1s73.1-32.8,73.1-73.1S296.3,182.9,256,182.9z
		 M256,305.1c-27.1,0-49.1-22-49.1-49.1s22-49.1,49.1-49.1s49.1,22,49.1,49.1S283.1,305.1,256,305.1z"/>
</g>
</svg>
