<?xml version="1.0"?>
<svg xmlns="http://www.w3.org/2000/svg" height="512px" viewBox="0 0 512 511" width="512px"><path d="m477.679688 139.453125 34.320312-138.953125-140.726562 32.417969-115.871094 137.960937-116.1875-137.636718-139.214844-32.683594 32.742188 139.164062 145.632812 122.867188-29.988281 35.703125-20.230469-20.230469-21.191406 21.195312 21.191406 21.191407-71.921875 71.921875c-14.058594.882812-27.863281 6.671875-38.585937 17.394531-23.371094 23.367187-23.371094 61.394531 0 84.765625 23.371093 23.371094 61.398437 23.375 84.769531 0 10.71875-10.71875 16.507812-24.523438 17.394531-38.585938l71.921875-71.921874 21.191406 21.191406 21.191407-21.191406-20.296876-20.296876 41.953126-35.660156 42.070312 35.675782-20.28125 20.28125 21.191406 21.191406 21.191406-21.191406 71.890626 71.890624c.898437 14.589844 6.996093 28.191407 17.425781 38.617188 23.421875 23.425781 61.339843 23.429688 84.769531 0 23.421875-23.421875 23.429688-61.339844 0-84.769531-10.429688-10.425781-24.027344-16.527344-38.621094-17.425781l-71.886718-71.890626 21.191406-21.191406-21.191406-21.191406-20.277344 20.273438-30.335938-35.832032zm-94.15625 223.378906-21.191407 21.195313-21.195312-21.191406 21.195312-21.195313zm16.476562 58.863281-16.476562-16.476562 21.191406-21.195312 16.476562 16.476562c-4.296875 2.542969-8.304687 5.640625-11.929687 9.265625-3.625 3.621094-6.71875 7.632813-9.261719 11.929687zm72.835938 51.644532c-11.710938 11.710937-30.667969 11.714844-42.382813 0-11.710937-11.710938-11.710937-30.667969 0-42.382813 11.714844-11.710937 30.671875-11.714843 42.382813 0 11.714843 11.714844 11.714843 30.667969 0 42.382813zm-413.191407-350.128906-19.390625-82.414063 82.457032 19.355469 113.128906 134.015625-38.1875 45.472656zm42.773438 286.554687c-3.65625-3.660156-7.671875-6.742187-11.9375-9.253906l16.484375-16.488281 21.195312 21.195312-16.484375 16.484375c-2.515625-4.265625-5.601562-8.28125-9.257812-11.9375zm25.738281-46.933594 21.191406-21.191406 21.195313 21.191406-21.191407 21.191407zm-46.929688 110.507813c-11.683593 11.683594-30.699218 11.683594-42.386718 0-11.683594-11.683594-11.683594-30.699219 0-42.382813 11.6875-11.6875 30.699218-11.6875 42.386718 0 11.683594 11.683594 11.683594 30.699219 0 42.382813zm88.433594-153.773438 218.113282-259.691406 83.4375-19.222656-20.308594 82.226562-258.34375 219.585938zm172.320313.039063-22.871094 22.871093-40.195313-34.078124 31.160157-26.484376zm0 0" fill="#FFF"/></svg>
